<svg width="75" height="50" viewBox="0 0 75 50" fill="none" xmlns="http://www.w3.org/2000/svg">
<rect width="75" height="50" fill="#FAFAFA" fill-opacity="0.01"/>
<path d="M36.2175 13.8895L36.8725 14.6551L37.6042 13.8895C40.179 11.3148 44.1711 11.4345 46.8185 13.8895L47.005 14.0691C49.5798 16.6439 48.9489 21.7901 46.4939 24.4375L46.171 24.7788L45.8115 25.1454C44.4262 26.5366 37.8077 32.2293 37.8077 32.2293C37.2439 32.6986 36.4234 32.6913 35.8681 32.212L33.8511 30.4612L32.0554 28.8815C29.9209 26.9887 28.3187 25.5074 27.2489 24.4375C24.6128 21.8015 24.1055 16.7052 26.7416 14.0691C29.3776 11.4331 33.5814 11.2535 36.2175 13.8895Z" fill="#262626"/>
</svg>
